<mxfile host="app.diagrams.net" modified="2023-06-25T13:47:03.825Z" agent="Mozilla/5.0 (Windows NT 10.0; Win64; x64) AppleWebKit/537.36 (KHTML, like Gecko) Chrome/114.0.0.0 Safari/537.36" etag="ZHH2Uka3EiZXcuGYaBbr" version="21.5.0" type="device">
  <diagram name="Page-1" id="WOrK5E0ptqWfXtFnZBY1">
    <mxGraphModel dx="574" dy="302" grid="1" gridSize="10" guides="1" tooltips="1" connect="1" arrows="1" fold="1" page="1" pageScale="1" pageWidth="827" pageHeight="1169" math="0" shadow="0">
      <root>
        <mxCell id="0" />
        <mxCell id="1" parent="0" />
        <mxCell id="vMDaJkhQvwKOsuEKZtzq-3" value="A" style="ellipse;whiteSpace=wrap;html=1;" vertex="1" parent="1">
          <mxGeometry x="360" y="140" width="40" height="40" as="geometry" />
        </mxCell>
        <mxCell id="vMDaJkhQvwKOsuEKZtzq-4" value="B" style="ellipse;whiteSpace=wrap;html=1;" vertex="1" parent="1">
          <mxGeometry x="500" y="280" width="40" height="40" as="geometry" />
        </mxCell>
        <mxCell id="vMDaJkhQvwKOsuEKZtzq-5" value="C" style="ellipse;whiteSpace=wrap;html=1;" vertex="1" parent="1">
          <mxGeometry x="360" y="420" width="40" height="40" as="geometry" />
        </mxCell>
        <mxCell id="vMDaJkhQvwKOsuEKZtzq-7" value="D" style="ellipse;whiteSpace=wrap;html=1;" vertex="1" parent="1">
          <mxGeometry x="220" y="280" width="40" height="40" as="geometry" />
        </mxCell>
        <mxCell id="vMDaJkhQvwKOsuEKZtzq-8" value="" style="endArrow=none;html=1;rounded=0;exitX=0.5;exitY=1;exitDx=0;exitDy=0;entryX=0.5;entryY=0;entryDx=0;entryDy=0;" edge="1" parent="1" source="vMDaJkhQvwKOsuEKZtzq-3" target="vMDaJkhQvwKOsuEKZtzq-4">
          <mxGeometry width="50" height="50" relative="1" as="geometry">
            <mxPoint x="360" y="320" as="sourcePoint" />
            <mxPoint x="410" y="270" as="targetPoint" />
          </mxGeometry>
        </mxCell>
        <mxCell id="vMDaJkhQvwKOsuEKZtzq-9" value="" style="endArrow=none;html=1;rounded=0;exitX=0.5;exitY=0;exitDx=0;exitDy=0;entryX=0.5;entryY=1;entryDx=0;entryDy=0;" edge="1" parent="1" source="vMDaJkhQvwKOsuEKZtzq-5" target="vMDaJkhQvwKOsuEKZtzq-4">
          <mxGeometry width="50" height="50" relative="1" as="geometry">
            <mxPoint x="404" y="244" as="sourcePoint" />
            <mxPoint x="456" y="296" as="targetPoint" />
          </mxGeometry>
        </mxCell>
        <mxCell id="vMDaJkhQvwKOsuEKZtzq-10" value="" style="endArrow=none;html=1;rounded=0;exitX=0.5;exitY=1;exitDx=0;exitDy=0;entryX=0.5;entryY=0;entryDx=0;entryDy=0;" edge="1" parent="1" source="vMDaJkhQvwKOsuEKZtzq-7" target="vMDaJkhQvwKOsuEKZtzq-5">
          <mxGeometry width="50" height="50" relative="1" as="geometry">
            <mxPoint x="414" y="254" as="sourcePoint" />
            <mxPoint x="466" y="306" as="targetPoint" />
          </mxGeometry>
        </mxCell>
        <mxCell id="vMDaJkhQvwKOsuEKZtzq-11" value="" style="endArrow=none;html=1;rounded=0;exitX=0.5;exitY=0;exitDx=0;exitDy=0;entryX=0.5;entryY=1;entryDx=0;entryDy=0;" edge="1" parent="1" source="vMDaJkhQvwKOsuEKZtzq-7" target="vMDaJkhQvwKOsuEKZtzq-3">
          <mxGeometry width="50" height="50" relative="1" as="geometry">
            <mxPoint x="360" y="320" as="sourcePoint" />
            <mxPoint x="410" y="270" as="targetPoint" />
          </mxGeometry>
        </mxCell>
        <mxCell id="vMDaJkhQvwKOsuEKZtzq-12" value="25" style="text;html=1;strokeColor=none;fillColor=none;align=center;verticalAlign=middle;whiteSpace=wrap;rounded=0;" vertex="1" parent="1">
          <mxGeometry x="268" y="214" width="60" height="30" as="geometry" />
        </mxCell>
        <mxCell id="vMDaJkhQvwKOsuEKZtzq-13" value="15" style="text;html=1;strokeColor=none;fillColor=none;align=center;verticalAlign=middle;whiteSpace=wrap;rounded=0;" vertex="1" parent="1">
          <mxGeometry x="439" y="220" width="60" height="30" as="geometry" />
        </mxCell>
        <mxCell id="vMDaJkhQvwKOsuEKZtzq-14" value="5" style="text;html=1;strokeColor=none;fillColor=none;align=center;verticalAlign=middle;whiteSpace=wrap;rounded=0;" vertex="1" parent="1">
          <mxGeometry x="433" y="355" width="60" height="30" as="geometry" />
        </mxCell>
        <mxCell id="vMDaJkhQvwKOsuEKZtzq-15" value="20" style="text;html=1;strokeColor=none;fillColor=none;align=center;verticalAlign=middle;whiteSpace=wrap;rounded=0;" vertex="1" parent="1">
          <mxGeometry x="271" y="359" width="60" height="30" as="geometry" />
        </mxCell>
        <mxCell id="vMDaJkhQvwKOsuEKZtzq-16" value="&lt;font color=&quot;#ff3333&quot;&gt;15&lt;/font&gt;" style="text;html=1;strokeColor=none;fillColor=none;align=center;verticalAlign=middle;whiteSpace=wrap;rounded=0;" vertex="1" parent="1">
          <mxGeometry x="281" y="224" width="60" height="30" as="geometry" />
        </mxCell>
        <mxCell id="vMDaJkhQvwKOsuEKZtzq-17" value="&lt;font color=&quot;#ff3333&quot;&gt;5&lt;/font&gt;" style="text;html=1;strokeColor=none;fillColor=none;align=center;verticalAlign=middle;whiteSpace=wrap;rounded=0;" vertex="1" parent="1">
          <mxGeometry x="277" y="345" width="60" height="30" as="geometry" />
        </mxCell>
        <mxCell id="vMDaJkhQvwKOsuEKZtzq-18" value="&lt;font color=&quot;#ff3333&quot;&gt;25&lt;/font&gt;" style="text;html=1;strokeColor=none;fillColor=none;align=center;verticalAlign=middle;whiteSpace=wrap;rounded=0;" vertex="1" parent="1">
          <mxGeometry x="426" y="230" width="60" height="30" as="geometry" />
        </mxCell>
        <mxCell id="vMDaJkhQvwKOsuEKZtzq-19" value="&lt;font color=&quot;#ff3333&quot;&gt;20&lt;/font&gt;" style="text;html=1;strokeColor=none;fillColor=none;align=center;verticalAlign=middle;whiteSpace=wrap;rounded=0;" vertex="1" parent="1">
          <mxGeometry x="423" y="344" width="60" height="30" as="geometry" />
        </mxCell>
        <mxCell id="vMDaJkhQvwKOsuEKZtzq-23" value="" style="endArrow=none;html=1;rounded=0;exitX=0.5;exitY=0;exitDx=0;exitDy=0;entryX=0.5;entryY=1;entryDx=0;entryDy=0;" edge="1" parent="1" source="vMDaJkhQvwKOsuEKZtzq-5" target="vMDaJkhQvwKOsuEKZtzq-3">
          <mxGeometry width="50" height="50" relative="1" as="geometry">
            <mxPoint x="320" y="300" as="sourcePoint" />
            <mxPoint x="370" y="250" as="targetPoint" />
          </mxGeometry>
        </mxCell>
        <mxCell id="vMDaJkhQvwKOsuEKZtzq-24" value="&lt;font color=&quot;#ff3333&quot;&gt;25&lt;/font&gt;" style="text;html=1;strokeColor=none;fillColor=none;align=center;verticalAlign=middle;whiteSpace=wrap;rounded=0;" vertex="1" parent="1">
          <mxGeometry x="340" y="290" width="60" height="30" as="geometry" />
        </mxCell>
        <mxCell id="vMDaJkhQvwKOsuEKZtzq-25" value="25" style="text;html=1;strokeColor=none;fillColor=none;align=center;verticalAlign=middle;whiteSpace=wrap;rounded=0;" vertex="1" parent="1">
          <mxGeometry x="360" y="290" width="60" height="30" as="geometry" />
        </mxCell>
      </root>
    </mxGraphModel>
  </diagram>
</mxfile>
